<svg xmlns="http://www.w3.org/2000/svg" width="18.214" height="18.214" viewBox="0 0 18.214 18.214">
    <path data-name="Trazado 25964" d="M153.4 188.233a1.1 1.1 0 0 1-.774-.324l-1.648-1.648a1.1 1.1 0 1 1 1.554-1.554l.928.928 3.07-2.631a1.1 1.1 0 0 1 1.428 1.648l-3.845 3.3a1.1 1.1 0 0 1-.713.281z" transform="translate(-145.386 -176.382)" />
    <path data-name="Trazado 25965" d="M9.107 18.214a9.107 9.107 0 1 1 9.107-9.107 9.107 9.107 0 0 1-9.107 9.107zm0-16.071a6.964 6.964 0 1 0 6.964 6.964 6.964 6.964 0 0 0-6.964-6.964z"/>
</svg>
