<svg xmlns="http://www.w3.org/2000/svg" width="30.401" height="30.395" viewBox="0 0 30.401 30.395">
	<g data-name="Grupo 14687">
		<g data-name="Grupo 14689">
			<path data-name="Trazado 26355"
				d="M15.192 30.4A15.2 15.2 0 1 1 30.4 15.212 15.177 15.177 0 0 1 15.192 30.4m-.008-27.972a12.771 12.771 0 1 0 12.791 12.75 12.791 12.791 0 0 0-12.791-12.75" />
			<path data-name="Trazado 26356"
				d="M102.182 103.962a2.353 2.353 0 0 1-.23.333q-1.981 1.989-3.968 3.972a1.209 1.209 0 0 1-1.258.352 1.152 1.152 0 0 1-.845-.912 1.222 1.222 0 0 1 .4-1.181q1.977-1.969 3.949-3.942a3.708 3.708 0 0 1 .411-.291 3.3 3.3 0 0 1-.415-.282q-1.99-1.98-3.972-3.968a1.182 1.182 0 0 1-.343-1.257 1.164 1.164 0 0 1 .952-.843 1.228 1.228 0 0 1 1.145.414q1.957 1.964 3.92 3.924a3.738 3.738 0 0 1 .257.326c.137-.129.227-.209.312-.295 1.332-1.331 2.659-2.667 4-3.992a1.21 1.21 0 0 1 2.071.519 1.241 1.241 0 0 1-.4 1.246q-1.965 1.956-3.924 3.919c-.089.089-.191.165-.409.352a1.888 1.888 0 0 1 .385.218c1.32 1.31 2.632 2.629 3.951 3.941a1.236 1.236 0 0 1 .395 1.247 1.208 1.208 0 0 1-2.026.555c-.608-.576-1.19-1.181-1.782-1.774l-2.576-2.582"
				transform="translate(-87.032 -87.093)" />
		</g>
	</g>
</svg>