<svg data-name="Grupo 14062" xmlns="http://www.w3.org/2000/svg" width="30.449" height="30.396"
	viewBox="0 0 30.449 30.396">
	<path data-name="Trazado 26235"
		d="M43.51 60.368a15.52 15.52 0 0 1 3-9.477c.491-.667 1.048-.832 1.581-.476s.592.986.1 1.687a12.956 12.956 0 0 0-1.66 12.688A13.134 13.134 0 1 0 51.461 49c-.077.05-.152.1-.232.149-.657.383-1.234.294-1.566-.24a1.022 1.022 0 0 1 .43-1.475 21.8 21.8 0 0 1 2.966-1.594 15.2 15.2 0 1 1-9.23 17.132 24.43 24.43 0 0 1-.319-2.605"
		transform="translate(-43.51 -44.737)" />
	<path data-name="Trazado 26236"
		d="M86.9 101.168c2.046-2.048 4-3.993 5.939-5.948a2.843 2.843 0 0 1 2.992-.9 2.786 2.786 0 0 1 1.393 4.44 6.274 6.274 0 0 1-.466.507q-3.776 3.78-7.556 7.556a2.861 2.861 0 0 1-4.519.016c-1.257-1.245-2.517-2.488-3.75-3.757a2.811 2.811 0 0 1 1.691-4.815 2.724 2.724 0 0 1 2.305.861c.648.65 1.277 1.32 1.971 2.039m.037 4.758a5.01 5.01 0 0 0 .731-.5q3.864-3.844 7.71-7.708c.113-.113.281-.242.289-.371.017-.273.041-.658-.116-.8a1.159 1.159 0 0 0-.85-.156c-.19.028-.357.269-.519.431l-6.3 6.29c-.694.691-1.2.685-1.894 0-.819-.807-1.628-1.625-2.441-2.438-.348-.348-.749-.512-1.152-.139-.44.408-.27.823.1 1.194 1.252 1.252 2.5 2.509 3.761 3.753a4.486 4.486 0 0 0 .677.448"
		transform="translate(-73.739 -85.645)" />
</svg>