<svg xmlns="http://www.w3.org/2000/svg" width="30.401" height="30.395" viewBox="0 0 30.401 30.395">
	<g data-name="Grupo 14687">
		<g data-name="Grupo 14689">
			<path data-name="Trazado 26355"
				d="M15.192 30.4A15.2 15.2 0 1 1 30.4 15.212 15.177 15.177 0 0 1 15.192 30.4m-.008-27.972a12.771 12.771 0 1 0 12.791 12.75 12.791 12.791 0 0 0-12.791-12.75"
				transform="translate(.001)" />
			<g data-name="Grupo 14690">
				<g data-name="Grupo 14692">
					<path data-name="Trazado 26357"
						d="M.98 11.772v-.933c0-.444-.01-.89.021-1.332a2.911 2.911 0 0 1 .9-1.849A6.516 6.516 0 0 1 3.5 6.514l.2-.109a.316.316 0 0 0 .038-.036l-.253-.138A6.188 6.188 0 0 1 1.773 4.96a2.989 2.989 0 0 1-.794-2.1c.007-.567 0-1.134 0-1.7V.981H.527A.5.5 0 0 1 0 .487.491.491 0 0 1 .521 0h8.767A.491.491 0 1 1 9.3.981h-.466v.168c0 .567-.006 1.134 0 1.7a3.01 3.01 0 0 1-.858 2.163A6.493 6.493 0 0 1 6.2 6.284l-.166.09c.061.036.106.064.152.089a6.5 6.5 0 0 1 1.776 1.265A3.009 3.009 0 0 1 8.831 9.9c-.008.562 0 1.124 0 1.686v.183h.451a.491.491 0 1 1 .009.98H.521a.491.491 0 1 1 .007-.98H.98m6.868-.007v-1.617a5.01 5.01 0 0 0-.017-.566 2.226 2.226 0 0 0-.867-1.448 8.92 8.92 0 0 0-1.817-1.1.449.449 0 0 0-.507 0 3.055 3.055 0 0 1-.34.169 6.86 6.86 0 0 0-1.532.975 2.2 2.2 0 0 0-.81 1.795c.017.464 0 .929 0 1.394v.4zM1.961.989v.175c0 .536.015 1.073 0 1.609a2.209 2.209 0 0 0 .823 1.815A8.309 8.309 0 0 0 4.828 5.8a.209.209 0 0 0 .155-.012c.249-.117.5-.237.741-.365A5.924 5.924 0 0 0 7.17 4.43a2.113 2.113 0 0 0 .681-1.614c-.014-.551 0-1.1 0-1.655V.989z"
						transform="translate(10.001 9)" style="stroke: currentColor; fill: currentColor" />
				</g>
			</g>
		</g>
	</g>
</svg>