<svg xmlns="http://www.w3.org/2000/svg" width="12.728" height="10.02" viewBox="0 0 12.728 10.02">
	<path
		d="M12.977 11.2l3.791-3.788A.716.716 0 0 0 15.754 6.4l-4.3 4.292a.715.715 0 0 0-.021.987L15.751 16a.716.716 0 1 0 1.014-1.011z"
		transform="translate(-871 176) translate(859.75 -182.194)" />
	<path
		d="M12.977 11.2l3.791-3.788A.716.716 0 0 0 15.754 6.4l-4.3 4.292a.715.715 0 0 0-.021.987L15.751 16a.716.716 0 1 0 1.014-1.011z"
		transform="translate(-871 176) translate(866.75 -182.194)" />
</svg>